:version 1.10
:name ASF
:units
  mass 1
  length 1
  angle deg
:documentation
  ASF file generated by Kaydara
:root
  axis xyz
  order  tx ty tz rx ry rz
  position 0 0 0
  orientation 0 0 0
:bonedata
  begin
    id 1
    name SpineDummy
    direction 0.999998 -0.00179978 1.38929e-006
    length 3.60008
    axis 0 0 0 xyz
  end
  begin
    id 2
    name Spine
    direction 0.964365 0.262802 0.0305839
    length 8.13928
    axis 1.33928 -1.75354 15.2838 xyz
    dof rx ry rz
  end
  begin
    id 3
    name Spine1
    direction 0.811168 0.572065 0.12144
    length 7.14954
    axis 2.2224 -6.9761 35.2157 xyz
    dof rx ry rz
  end
  begin
    id 4
    name Neck
    direction 0 0 0
    length 0
    axis 2.2224 -6.9761 35.2157 xyz
    dof rx ry rz
  end
  begin
    id 5
    name HeadDummy
    direction 0.810939 0.572387 0.121455
    length 3.55534
    axis 2.2224 -6.9761 35.2157 xyz
  end
  begin
    id 6
    name Head
    direction 0.998226 -0.000232542 0.0595419
    length 7.35666
    axis -3.03688 -3.41352 -0.0133467 xyz
    dof rx ry rz
  end
  begin
    id 7
    name R_ClavicleDummy
    direction 0.531669 -0.194489 -0.824319
    length 2.49392
    axis 2.2224 -6.9761 35.2157 xyz
  end
  begin
    id 8
    name R_Clavicle
    direction -0.155119 0.0480802 -0.986725
    length 4.485
    axis -54.2764 80.6538 162.779 xyz
    dof rx ry rz
  end
  begin
    id 9
    name R_UpperArm
    direction -0.955567 0.200068 -0.216484
    length 10.1122
    axis -72.9943 12.5026 168.175 xyz
    dof rx ry rz
  end
  begin
    id 10
    name R_Forearm
    direction -0.61433 0.385743 0.688332
    length 9.39148
    axis -117.015 -43.4982 147.875 xyz
    dof rx ry rz
  end
  begin
    id 11
    name R_Hand
    direction -0.699429 0.0170333 0.714499
    length 3.66324
    axis -45.0303 -36.7097 175.478 xyz
    dof rx ry rz
  end
  begin
    id 12
    name L_ClavicleDummy
    direction 0.40287 -0.36502 0.839319
    length 2.49392
    axis 2.2224 -6.9761 35.2157 xyz
  end
  begin
    id 13
    name L_Clavicle
    direction -0.231271 -0.0726419 0.970174
    length 4.485
    axis 18.4357 -75.9711 -162.563 xyz
    dof rx ry rz
  end
  begin
    id 14
    name L_UpperArm
    direction -0.917494 0.144359 0.370629
    length 10.1122
    axis 56.0417 -21.7544 171.058 xyz
    dof rx ry rz
  end
  begin
    id 15
    name L_Forearm
    direction -0.496786 0.615074 -0.612281
    length 9.39148
    axis 89.8094 37.7546 128.927 xyz
    dof rx ry rz
  end
  begin
    id 16
    name L_Hand
    direction -0.409932 0.64962 -0.640274
    length 3.66324
    axis -0.424369 32.133 128.52 xyz
    dof rx ry rz
  end
  begin
    id 17
    name L_ThighDummy
    direction -1.84081e-006 1.87549e-006 1
    length 3.13049
    axis 0 0 0 xyz
  end
  begin
    id 18
    name L_Thigh
    direction -0.947739 0.307978 0.083308
    length 17.9961
    axis 173.219 -4.77873 161.998 xyz
    dof rx ry rz
  end
  begin
    id 19
    name L_Calf
    direction -0.728814 -0.684427 0.0197583
    length 13.3367
    axis 167.331 -1.13214 -136.799 xyz
    dof rx ry rz
  end
  begin
    id 20
    name L_Foot
    direction -0.9028 0.418719 0.0981191
    length 5.8674
    axis 163.436 11.5135 -155.37 xyz
    dof rx ry rz
  end
  begin
    id 21
    name L_Toe0
    direction -0.35341 0.886259 0.299411
    length 4.75286
    axis 169.316 -17.4222 111.74 xyz
    dof rx ry rz
  end
  begin
    id 22
    name R_ThighDummy
    direction 9.32778e-007 -8.82053e-007 -1
    length 3.13049
    axis 0 0 0 xyz
  end
  begin
    id 23
    name R_Thigh
    direction -0.925064 0.37528 -0.0585023
    length 17.9961
    axis -178.698 3.35385 157.919 xyz
    dof rx ry rz
  end
  begin
    id 24
    name R_Calf
    direction -0.68969 -0.718776 -0.0876886
    length 13.3367
    axis -160.504 5.03065 -133.817 xyz
    dof rx ry rz
  end
  begin
    id 25
    name R_Foot
    direction -0.857405 0.418858 -0.299022
    length 5.8674
    axis -161.328 4.38911 -154.413 xyz
    dof rx ry rz
  end
  begin
    id 26
    name R_Toe0
    direction -0.100745 0.952789 -0.286433
    length 4.75286
    axis 171.683 16.6445 96.0359 xyz
    dof rx ry rz
  end
:hierarchy
  begin
    root SpineDummy L_ThighDummy R_ThighDummy
    SpineDummy Spine
    Spine Spine1
    Spine1 Neck
    Neck HeadDummy R_ClavicleDummy L_ClavicleDummy
    HeadDummy Head
    R_ClavicleDummy R_Clavicle
    R_Clavicle R_UpperArm
    R_UpperArm R_Forearm
    R_Forearm R_Hand
    L_ClavicleDummy L_Clavicle
    L_Clavicle L_UpperArm
    L_UpperArm L_Forearm
    L_Forearm L_Hand
    L_ThighDummy L_Thigh
    L_Thigh L_Calf
    L_Calf L_Foot
    L_Foot L_Toe0
    R_ThighDummy R_Thigh
    R_Thigh R_Calf
    R_Calf R_Foot
    R_Foot R_Toe0
  end

:SAMPLES-PER-SECOND 30
:FULLY-SPECIFIED
:DEGREES
64
root  -9.54123 31.0983 -2.40444 -122.138 -16.9789 79.1776
Spine  2.1864 0.0188283 -0.71619
Spine1  2.4791 -8.16099 -2.35392
Neck  3.97569e-016 0 -2.38542e-015
Head  22.4008 -5.29042 11.2185
R_Clavicle  0.359788 -11.0964 1.53394
R_UpperArm  16.8913 6.48523 7.40097
R_Forearm  17.8024 -11.4182 9.63054
R_Hand  -0.904909 7.77097 -18.1249
L_Clavicle  -0.482666 16.5864 -2.41761
L_UpperArm  -25.9478 11.6371 37.5413
L_Forearm  12.4185 43.1851 56.6483
L_Hand  0.302968 1.22115 5.12887
L_Thigh  -21.6736 -12.4334 8.08708
L_Calf  9.75283 -1.65103 12.3287
L_Foot  -3.1744 -4.42818 -13.2319
L_Toe0  1.6854 -0.068262 -5.15169
R_Thigh  13.9964 2.9104 -2.40935
R_Calf  8.86714 -2.81278 -8.79004
R_Foot  -0.781702 -8.412 -8.67524
R_Toe0  -4.94217 0.258693 -13.063
65
root  -9.57577 30.1043 -2.92689 -130.83 -18.1498 81.4332
Spine  5.3869 2.4792 0.661541
Spine1  5.44472 -13.2178 -3.19844
Neck  3.97569e-016 0 -2.38542e-015
Head  23.4292 -4.42936 11.1132
R_Clavicle  0.431258 -8.13082 2.22365
R_UpperArm  14.8249 10.4943 -0.0967878
R_Forearm  18.9727 -9.94949 8.34988
R_Hand  -0.929075 7.88523 -18.3357
L_Clavicle  -0.472474 16.3883 -2.36331
L_UpperArm  -25.2615 12.9643 46.7697
L_Forearm  12.1295 43.0511 58.5086
L_Hand  0.282339 0.562734 5.25849
L_Thigh  -21.1088 -13.0727 8.04299
L_Calf  4.99733 -1.04457 7.88775
L_Foot  0.0362777 5.58245 -5.83654
L_Toe0  5.00667 -0.368844 -1.42304
R_Thigh  18.8749 3.34864 -3.91311
R_Calf  8.7532 -4.96127 -15.6284
R_Foot  -0.690448 -7.60442 -8.22501
R_Toe0  -1.64789 -0.312711 -17.833
66
root  -9.61157 28.9463 -3.49085 -138.214 -20.1467 83.4949
Spine  8.09835 3.97756 2.10431
Spine1  7.83502 -17.4349 -2.9522
Neck  3.97569e-016 0 -2.38542e-015
Head  24.4962 -3.39117 9.74609
R_Clavicle  0.561484 -4.78072 3.04296
R_UpperArm  14.2454 14.4146 -7.38414
R_Forearm  20.748 -10.0385 8.42661
R_Hand  -1.0521 7.73045 -19.2727
L_Clavicle  -0.442862 15.7793 -1.51088
L_UpperArm  -24.56 13.8938 54.5097
L_Forearm  8.53145 42.4386 59.0762
L_Hand  0.212115 -0.418611 4.64996
L_Thigh  -19.5241 -14.6762 7.64343
L_Calf  -3.70722 -0.338001 2.70749
L_Foot  4.50785 12.3493 5.17842
L_Toe0  0.0971203 0.0386502 -3.85489
R_Thigh  22.0788 0.957524 -6.99524
R_Calf  13.1908 -6.69935 -21.3616
R_Foot  -0.526087 -7.74593 -9.30719
R_Toe0  -1.13786 -0.232603 -17.0912
67
root  -9.64091 27.9855 -3.89765 -142.192 -22.2663 85.1396
Spine  9.79923 5.36118 3.17354
Spine1  9.03017 -20.622 -1.89584
Neck  3.97569e-016 0 -2.38542e-015
Head  24.7139 -2.57946 8.80772
R_Clavicle  0.675936 -1.81556 3.54984
R_UpperArm  15.6264 17.1783 -12.2401
R_Forearm  22.7359 -11.7694 9.93842
R_Hand  -1.14299 7.36394 -19.9682
L_Clavicle  -0.403864 14.3395 0.00681523
L_UpperArm  -25.1606 14.0738 58.3342
L_Forearm  5.99753 41.6943 60.1971
L_Hand  0.0970338 -1.97657 2.94233
L_Thigh  -18.134 -15.7855 7.92892
L_Calf  -8.9034 0.489107 -3.18859
L_Foot  4.52381 6.75336 10.6173
L_Toe0  0.503147 0.0365471 -6.29594
R_Thigh  25.3884 -3.86625 -10.7645
R_Calf  16.4815 -7.47486 -24.0037
R_Foot  -0.288224 -6.91863 -9.72003
R_Toe0  4.86489 -1.02373 -12.5599
68
root  -9.65524 27.5966 -3.90433 -142.478 -23.1012 85.8469
Spine  10.7725 6.72761 3.17801
Spine1  9.59068 -21.7036 -1.05242
Neck  3.97569e-016 0 -2.38542e-015
Head  23.5578 -2.49339 9.62451
R_Clavicle  0.714536 -0.424863 3.6666
R_UpperArm  16.6319 18.1641 -12.7253
R_Forearm  23.5247 -14.2342 12.138
R_Hand  -1.02292 7.17384 -18.9671
L_Clavicle  -0.400824 12.8312 1.40877
L_UpperArm  -27.1859 13.9904 57.668
L_Forearm  5.90759 40.5103 60.7444
L_Hand  0.0241387 -3.76599 0.674117
L_Thigh  -16.9304 -16.5313 8.45456
L_Calf  -10.8376 0.831649 -5.71505
L_Foot  4.11747 5.21806 11.1071
L_Toe0  0.50653 0.037713 -6.14924
R_Thigh  28.3368 -7.55285 -13.7897
R_Calf  12.5353 -7.37874 -23.6636
R_Foot  0.112717 -4.24534 -8.79967
R_Toe0  10.0908 -2.70535 -0.890768
69
root  -9.71857 27.8835 -3.36835 -140.178 -22.1796 85.2876
Spine  11.2508 7.55579 2.41625
Spine1  10.0788 -20.7577 -1.51726
Neck  3.97569e-016 0 -2.38542e-015
Head  21.1083 -2.73041 11.4421
R_Clavicle  0.666888 -0.979754 3.45152
R_UpperArm  14.7546 17.0041 -9.15993
R_Forearm  22.6989 -16.4258 14.1499
R_Hand  -0.738225 7.22766 -16.6549
L_Clavicle  -0.410049 12.1132 2.00769
L_UpperArm  -28.6336 14.055 53.8948
L_Forearm  6.28446 39.4131 58.8139
L_Hand  0.00943257 -4.2378 -0.441043
L_Thigh  -15.7631 -16.0604 8.84009
L_Calf  -9.61678 0.484119 -3.28908
L_Foot  3.90748 6.5126 8.76756
L_Toe0  0.496012 0.0388331 -6.04839
R_Thigh  28.8075 -7.54904 -14.9229
R_Calf  4.40454 -6.71374 -21.3863
R_Foot  0.805157 0.282622 -6.46368
R_Toe0  -3.26871 1.20541 4.65757
70
root  -9.9367 28.675 -2.33036 -135.807 -20.262 83.2973
Spine  10.814 7.61159 1.71307
Spine1  9.96307 -19.4035 -3.23292
Neck  3.97569e-016 0 -2.38542e-015
Head  18.0098 -2.73779 12.8343
R_Clavicle  0.527442 -2.90844 2.76533
R_UpperArm  10.1549 13.8661 -3.25636
R_Forearm  21.1396 -18.3351 15.9626
R_Hand  -0.470346 7.26719 -14.4938
L_Clavicle  -0.403581 12.2184 1.79072
L_UpperArm  -28.0307 13.5999 48.3836
L_Forearm  6.4302 39.3978 55.1606
L_Hand  0.0163573 -2.48933 0.443216
L_Thigh  -15.5513 -15.4141 9.27402
L_Calf  -5.15422 -0.498838 3.83813
L_Foot  3.31995 10.0619 3.14823
L_Toe0  0.470057 0.0382391 -5.80057
R_Thigh  26.5994 -5.23025 -13.7987
R_Calf  0.727639 -5.63209 -17.7914
R_Foot  1.37539 3.82102 -3.48135
R_Toe0  -12.6812 3.81447 -0.489274
71
root  -10.2657 29.6372 -0.980577 -129.379 -17.7589 80.4682
Spine  9.16897 7.69083 0.765817
Spine1  8.59579 -18.4734 -4.72053
Neck  3.97569e-016 0 -2.38542e-015
Head  15.0814 -2.84918 13.4429
R_Clavicle  0.349667 -5.34565 1.66942
R_UpperArm  4.5085 9.50161 3.33922
R_Forearm  19.873 -20.5785 18.2083
R_Hand  -0.281244 7.24128 -12.9473
L_Clavicle  -0.391832 12.7257 1.17009
L_UpperArm  -26.4173 12.2374 41.4665
L_Forearm  7.67251 40.1615 51.5035
L_Hand  0.0986177 0.422798 1.87748
L_Thigh  -17.2064 -14.7112 9.46081
L_Calf  4.77431 -1.76508 14.0692
L_Foot  0.829288 8.42958 -5.22567
L_Toe0  0.508804 0.0426363 -6.16252
R_Thigh  23.7985 -2.97016 -11.3256
R_Calf  4.81125 -4.21784 -13.2299
R_Foot  1.00147 3.0472 -1.40607
R_Toe0  -8.97324 1.66731 -5.79004
72
root  -10.5583 30.4476 0.449893 -122.158 -14.8727 77.9717
Spine  6.87785 7.86423 -1.07827
Spine1  6.43508 -17.0155 -4.92135
Neck  3.97569e-016 0 -2.38542e-015
Head  12.9333 -3.56316 13.4472
R_Clavicle  0.234361 -7.5444 0.725404
R_UpperArm  0.841253 4.90679 9.61765
R_Forearm  18.1924 -23.9944 20.2519
R_Hand  -0.103745 7.14554 -11.4459
L_Clavicle  -0.382982 13.2229 0.446121
L_UpperArm  -25.1234 10.9932 33.5605
L_Forearm  9.87315 40.4742 47.8375
L_Hand  0.175689 2.89183 2.47408
L_Thigh  -18.566 -12.0937 9.84189
L_Calf  17.1212 -3.94629 23.4826
L_Foot  -3.9476 -9.08055 -13.5883
L_Toe0  0.509573 0.0432195 -6.13211
R_Thigh  20.3217 -1.68165 -8.75016
R_Calf  12.1887 -2.62265 -8.19513
R_Foot  -0.309321 -1.35296 -0.615822
R_Toe0  0.626013 -0.358764 -6.36104
73
root  -10.806 30.945 1.84988 -115.898 -12.5395 75.815
Spine  4.5691 6.64503 -2.78915
Spine1  4.33627 -14.4976 -4.80288
Neck  3.97569e-016 0 -2.38542e-015
Head  11.9057 -4.4884 12.708
R_Clavicle  0.203742 -9.5345 0.244288
R_UpperArm  5.35275 0.708171 15.507
R_Forearm  11.8519 -29.9307 19.9478
R_Hand  0.0721604 7.09986 -9.97331
L_Clavicle  -0.372924 13.4465 -0.233935
L_UpperArm  -22.0192 10.6738 26.0653
L_Forearm  9.22984 38.7324 42.9636
L_Hand  0.203413 4.31994 2.50281
L_Thigh  -10.402 -10.2968 9.84141
L_Calf  14.7403 -9.48041 31.6195
L_Foot  -5.01422 -17.3205 -13.8246
L_Toe0  0.5111 0.0437369 -6.13075
R_Thigh  14.0647 -1.60195 -6.72704
R_Calf  16.7024 -1.29885 -4.07781
R_Foot  -1.16827 -4.25931 -0.408684
R_Toe0  5.93636 -1.80134 -1.33616
74
root  -11.0364 30.9804 3.20455 -111.052 -10.9738 73.9128
Spine  2.27706 4.48026 -2.92046
Spine1  2.29575 -11.995 -5.66873
Neck  3.97569e-016 0 -2.38542e-015
Head  12.0472 -4.82982 11.0501
R_Clavicle  0.226362 -12.2907 -0.0176986
R_UpperArm  13.8519 -2.67713 21.6981
R_Forearm  3.30553 -35.9753 19.7713
R_Hand  0.138867 7.38238 -9.66705
L_Clavicle  -0.374806 13.8057 -0.697959
L_UpperArm  -11.6598 10.145 20.1617
L_Forearm  1.17284 32.9505 37.8005
L_Hand  0.178404 4.72006 2.13953
L_Thigh  -1.46236 -8.75949 10.7817
L_Calf  3.80371 -11.6197 35.2118
L_Foot  -3.81261 -12.6205 -7.19554
L_Toe0  0.512201 0.0439673 -6.12977
R_Thigh  6.67338 -2.12988 -5.49271
R_Calf  15.5425 -0.686938 -2.19203
R_Foot  -0.882635 -2.51844 1.28654
R_Toe0  5.78139 -2.23993 5.74196
